<svg xmlns="http://www.w3.org/2000/svg" viewBox="0 0 600 400">
  <defs>
    <radialGradient id="bg4s" cx="50%" cy="50%" r="70%">
      <stop offset="0%" stop-color="#1a2e42"/>
      <stop offset="100%" stop-color="#0d1b2a"/>
    </radialGradient>
    <filter id="glow4s">
      <feGaussianBlur stdDeviation="3" result="blur"/>
      <feMerge><feMergeNode in="blur"/><feMergeNode in="SourceGraphic"/></feMerge>
    </filter>
  </defs>
  <rect width="600" height="400" fill="url(#bg4s)"/>

  <!-- Sparkler stick 1 – Red -->
  <line x1="120" y1="370" x2="165" y2="175" stroke="#888" stroke-width="5" stroke-linecap="round"/>
  <circle cx="165" cy="175" r="7" fill="#ff4444" filter="url(#glow4s)"/>
  <line x1="165" y1="168" x2="140" y2="130" stroke="#ff4444" stroke-width="2" opacity="0.9"/>
  <line x1="165" y1="168" x2="195" y2="125" stroke="#ff6644" stroke-width="2" opacity="0.9"/>
  <line x1="165" y1="168" x2="130" y2="155" stroke="#ff2222" stroke-width="1.5" opacity="0.8"/>
  <line x1="165" y1="168" x2="200" y2="155" stroke="#ff8844" stroke-width="1.5" opacity="0.8"/>
  <line x1="165" y1="168" x2="155" y2="115" stroke="#ffaa44" stroke-width="1.5" opacity="0.7"/>
  <circle cx="140" cy="130" r="3" fill="#ff4444" opacity="0.9"/>
  <circle cx="195" cy="125" r="2.5" fill="#ff6644" opacity="0.8"/>
  <circle cx="130" cy="155" r="2" fill="#ff2222" opacity="0.7"/>
  <circle cx="200" cy="155" r="2" fill="#ff8844" opacity="0.7"/>
  <circle cx="155" cy="115" r="2" fill="#ffaa44" opacity="0.6"/>

  <!-- Sparkler stick 2 – Blue -->
  <line x1="220" y1="370" x2="230" y2="160" stroke="#888" stroke-width="5" stroke-linecap="round"/>
  <circle cx="230" cy="160" r="7" fill="#4488ff" filter="url(#glow4s)"/>
  <line x1="230" y1="153" x2="200" y2="115" stroke="#4488ff" stroke-width="2" opacity="0.9"/>
  <line x1="230" y1="153" x2="262" y2="112" stroke="#66aaff" stroke-width="2" opacity="0.9"/>
  <line x1="230" y1="153" x2="195" y2="140" stroke="#2266ff" stroke-width="1.5" opacity="0.8"/>
  <line x1="230" y1="153" x2="268" y2="140" stroke="#88ccff" stroke-width="1.5" opacity="0.8"/>
  <line x1="230" y1="153" x2="218" y2="102" stroke="#aaddff" stroke-width="1.5" opacity="0.7"/>
  <circle cx="200" cy="115" r="3" fill="#4488ff" opacity="0.9"/>
  <circle cx="262" cy="112" r="2.5" fill="#66aaff" opacity="0.8"/>
  <circle cx="195" cy="140" r="2" fill="#2266ff" opacity="0.7"/>
  <circle cx="268" cy="140" r="2" fill="#88ccff" opacity="0.7"/>
  <circle cx="218" cy="102" r="2" fill="#aaddff" opacity="0.6"/>

  <!-- Sparkler stick 3 – Green -->
  <line x1="360" y1="370" x2="370" y2="155" stroke="#888" stroke-width="5" stroke-linecap="round"/>
  <circle cx="370" cy="155" r="7" fill="#44cc66" filter="url(#glow4s)"/>
  <line x1="370" y1="148" x2="340" y2="108" stroke="#44cc66" stroke-width="2" opacity="0.9"/>
  <line x1="370" y1="148" x2="402" y2="105" stroke="#66ee88" stroke-width="2" opacity="0.9"/>
  <line x1="370" y1="148" x2="335" y2="135" stroke="#22aa44" stroke-width="1.5" opacity="0.8"/>
  <line x1="370" y1="148" x2="408" y2="135" stroke="#88ffaa" stroke-width="1.5" opacity="0.8"/>
  <line x1="370" y1="148" x2="358" y2="97" stroke="#aaffcc" stroke-width="1.5" opacity="0.7"/>
  <circle cx="340" cy="108" r="3" fill="#44cc66" opacity="0.9"/>
  <circle cx="402" cy="105" r="2.5" fill="#66ee88" opacity="0.8"/>
  <circle cx="335" cy="135" r="2" fill="#22aa44" opacity="0.7"/>
  <circle cx="408" cy="135" r="2" fill="#88ffaa" opacity="0.7"/>
  <circle cx="358" cy="97" r="2" fill="#aaffcc" opacity="0.6"/>

  <!-- Sparkler stick 4 – Gold -->
  <line x1="480" y1="370" x2="435" y2="170" stroke="#888" stroke-width="5" stroke-linecap="round"/>
  <circle cx="435" cy="170" r="7" fill="#f0c040" filter="url(#glow4s)"/>
  <line x1="435" y1="163" x2="405" y2="120" stroke="#f0c040" stroke-width="2" opacity="0.9"/>
  <line x1="435" y1="163" x2="467" y2="118" stroke="#ffdd44" stroke-width="2" opacity="0.9"/>
  <line x1="435" y1="163" x2="400" y2="150" stroke="#d4a017" stroke-width="1.5" opacity="0.8"/>
  <line x1="435" y1="163" x2="472" y2="150" stroke="#ffe066" stroke-width="1.5" opacity="0.8"/>
  <line x1="435" y1="163" x2="423" y2="110" stroke="#fff3aa" stroke-width="1.5" opacity="0.7"/>
  <circle cx="405" cy="120" r="3" fill="#f0c040" opacity="0.9"/>
  <circle cx="467" cy="118" r="2.5" fill="#ffdd44" opacity="0.8"/>
  <circle cx="400" cy="150" r="2" fill="#d4a017" opacity="0.7"/>
  <circle cx="472" cy="150" r="2" fill="#ffe066" opacity="0.7"/>
  <circle cx="423" cy="110" r="2" fill="#fff3aa" opacity="0.6"/>

  <!-- Extra scattered sparks -->
  <circle cx="170" cy="220" r="2" fill="#ff4444" opacity="0.5"/>
  <circle cx="145" cy="195" r="1.5" fill="#ff6644" opacity="0.4"/>
  <circle cx="240" cy="200" r="2" fill="#4488ff" opacity="0.5"/>
  <circle cx="355" cy="210" r="2" fill="#44cc66" opacity="0.5"/>
  <circle cx="450" cy="215" r="2" fill="#f0c040" opacity="0.5"/>
  <circle cx="300" cy="80" r="3" fill="#fff" opacity="0.2"/>
  <circle cx="510" cy="90" r="2" fill="#fff" opacity="0.15"/>
  <circle cx="90" cy="280" r="2" fill="#fff" opacity="0.15"/>

  <!-- Label -->
  <text x="300" y="395" text-anchor="middle" font-family="Georgia,serif" font-size="18" fill="#d4a017" font-weight="bold">4 Colour Sparklers 12 CM</text>
</svg>
